<svg width="128" height="128" viewBox="0 0 128 128" fill="none" xmlns="http://www.w3.org/2000/svg">
  <rect width="128" height="128" rx="34" fill="#E8C4B8"/>
  <path d="M14 116C17 89 34 76 63 76C93 76 110 91 114 116H14Z" fill="#785B6B"/>
  <path d="M39 63C39 41 50 26 67 26C86 26 95 42 92 65C90 83 80 94 66 94C50 94 40 81 39 63Z" fill="#E9B995"/>
  <path d="M35 60C33 39 44 18 68 18C91 18 100 35 95 59L86 51C80 54 73 51 68 45C62 53 51 57 40 57L35 60Z" fill="#503E4D"/>
  <path d="M42 49C48 44 51 37 52 29" stroke="#664A5C" stroke-width="7" stroke-linecap="round"/>
  <path d="M84 49C79 42 78 33 80 25" stroke="#664A5C" stroke-width="7" stroke-linecap="round"/>
  <ellipse cx="55" cy="65" rx="3" ry="4" fill="#4C3C3A"/><ellipse cx="78" cy="65" rx="3" ry="4" fill="#4C3C3A"/>
  <path d="M58 78C63 82 70 82 75 78" stroke="#B96F6B" stroke-width="3" stroke-linecap="round"/>
  <path d="M50 105C58 100 75 100 84 106" stroke="#F8E8CE" stroke-width="5" stroke-linecap="round"/>
  <circle cx="101" cy="25" r="11" fill="#F5D476"/><path d="M101 18V32M94 25H108" stroke="#FFF7D8" stroke-width="3" stroke-linecap="round"/>
</svg>
