<svg xmlns="http://www.w3.org/2000/svg" viewBox="0 0 96 96" role="img" aria-label="Leo portrait"><circle cx="48" cy="48" r="45" fill="#d99a73"/><path d="M14 45c-2-29 16-41 37-41 25 0 36 15 32 40-10-8-16-16-20-27-14 16-30 23-49 28Z" fill="#4e5c63"/><circle cx="34" cy="49" r="4" fill="#4f4848"/><circle cx="62" cy="49" r="4" fill="#4f4848"/><path d="M38 65c7 4 13 4 20 0" fill="none" stroke="#8d4e4b" stroke-width="4" stroke-linecap="round"/><path d="M23 86c4-16 15-23 25-23 11 0 21 7 25 23" fill="#d7795f"/><path d="M35 27c9-7 22-6 29 3" fill="none" stroke="#768f8d" stroke-width="4" stroke-linecap="round"/></svg>
